#tb 0: 1/25
0,          0,          0,        1,   181176, da7b045edf219bced5b152791b10c87f
0,          1,          1,        1,   180804, b06bd1fe1a00a21efe0df3eabb909c9f
0,          2,          2,        1,   182152, 75e86b780b70de0510be70278b8005d7
0,          3,          3,        1,   181092, 70beeae6c87daac962fa67a5ef72f250
0,          4,          4,        1,   180616, b0b8fda4db6828360d67556c8d90ea4f
0,          5,          5,        1,   181452, 434daeeac59b17aaa3717ae9e5e5a3d7
0,          6,          6,        1,   180648, c70e591fc050a7d8b88efed67a78c119
0,          7,          7,        1,   181108, a84cd2efe629a710bf8f2118686ec8e3
0,          8,          8,        1,   180324, 9e1559a606140bbad9d268d1453e26f8
0,          9,          9,        1,   181236, 8daa9a96816335c58b88223d8c54f4a0
0,         10,         10,        1,   180896, 5566aaf2bfb0a5f8601abb55496b0373
0,         11,         11,        1,   180960, 67eb48372ea714bfb6b962029fa67328
0,         12,         12,        1,   179396, 49bc20f86bd85dddea8085238ca3221a
0,         13,         13,        1,   180220, aa783168cf3753dcc68d90155505081e
0,         14,         14,        1,   181724, cef5a732a3308f7803d36d06e22f2490
0,         15,         15,        1,   181248, a5bd0e1d9ea5130b35d084929fcb3f1d
0,         16,         16,        1,   180824, 7ea8991f802ed2db13f12478b8445d96
0,         17,         17,        1,   180364, f9065f42a52f4485347dfe667101bf3c
0,         18,         18,        1,   179728, e88bf6901809ff965b76dad488a6dced
0,         19,         19,        1,   180156, f054de2239e20e776663de033608e0c0
0,         20,         20,        1,   179548, a328018fc852bb3f8a0a64b30d051d02
0,         21,         21,        1,   179612, b865fd5fcbe5b6d7ca3e111048ecc3b2
0,         22,         22,        1,   180728, 8a0a4c6933f8b6323426272fb64722de
0,         23,         23,        1,   180976, c4a788e3c7b81070013934df31299208
0,         24,         24,        1,   181592, 9fab2972676d67f86ec7b319ffb78e59
0,         25,         25,        1,   181392, 7d762db7b2651f259d32a882a499c156
0,         26,         26,        1,   181056, 1620dc2804ca0d9a48097db7f91bf6bc
0,         27,         27,        1,   180416, 62dcb666136de841db99096e7c5fadb0
0,         28,         28,        1,   178256, 27b01db3cf22c2a982b73861d3eb6add
0,         29,         29,        1,   178040, ef78cd2d2091c03e90ab3feae0b2adcf
0,         30,         30,        1,   179540, f026cc6577c8fd8ec685a45b88b31b62
0,         31,         31,        1,   180436, af692865fb34b1418b756e794a9c1c3b
0,         32,         32,        1,   180200, e65b58ef8e13e67a4c0c45086d299818
0,         33,         33,        1,   181944, 6eae7d0bf76bf06da71186671901e698
0,         34,         34,        1,   181044, 740dadcf236ca0af236c09d29b312940
0,         35,         35,        1,   180952, 5badcbb17e97be7b54fa1e9e49f677ed
0,         36,         36,        1,   179920, 8827a40f0c1e0b04f6085a7146955e2f
0,         37,         37,        1,   180324, 9d42e2532a48c4972cb71ac541c3ea57
0,         38,         38,        1,   178324, 31db217d6e574bf83279288f0b36a628
0,         39,         39,        1,   178460, 8fdc5e7be532e05ddff2e10064113882
0,         40,         40,        1,   178720, 28fdeaf450edd61a5a0f0dbc75aefe99
0,         41,         41,        1,   179340, 2988ec8ce759703ef975c55a22ed3cd4
0,         42,         42,        1,   179808, e27ed3b49dd8c3ef98e3526d9d691b65
0,         43,         43,        1,   179708, 14415299804aa63cb7b262af6869a371
0,         44,         44,        1,   179524, bb75948719d5af9e48543fa0c932f746
0,         45,         45,        1,   177332, b0984e1db78dcc3d44a010444d87cf78
0,         46,         46,        1,   176440, bd57710508310a95ad41cd056b715e12
0,         47,         47,        1,   177184, f81326c0bce9ca0efe7edae7659d0e8b
0,         48,         48,        1,   177380, edf7f2fd74be9992edda43ea87e524b7
0,         49,         49,        1,   176780, 8902e18670264eec47294ffde934fcb9
